<svg width="155" height="156" viewBox="0 0 155 156" fill="none" xmlns="http://www.w3.org/2000/svg">
<g filter="url(#filter0_d_154_1383)">
<rect x="53.1211" y="53.1211" width="48" height="48.8293" rx="24" fill="url(#paint0_linear_154_1383)"/>
<rect x="53.1211" y="53.1211" width="48" height="48.8293" rx="24" stroke="black" stroke-width="2"/>
</g>
<path fill-rule="evenodd" clip-rule="evenodd" d="M76.0535 66.1426C76.0535 66.1426 78.208 68.0745 78.8094 70.5693C79.4105 73.064 77.4196 76.4598 79.9178 76.3271C82.4052 76.1947 80.2657 72.3112 80.2459 72.2754C80.2874 72.2977 85.9126 75.3254 85.491 80.6064C85.0675 85.9073 79.2947 87.1133 79.2947 87.1133C79.2947 87.1133 80.8046 85.852 81.0975 84.7627C81.3902 83.6733 80.8211 81.4336 80.8211 81.4336C80.8211 81.4336 80.4095 83.2582 79.7654 83.9326C79.2151 84.5086 78.54 84.9066 77.5721 85.0107C78.3633 84.6213 78.9089 83.8096 78.909 82.8682C78.909 81.5483 77.8392 80.4785 76.5193 80.4785C75.1996 80.4786 74.1297 81.5484 74.1297 82.8682C74.1297 83.2283 74.2116 83.5688 74.3543 83.875C73.5284 83.206 73.3973 82.1348 73.3973 82.1348C73.3973 82.1348 72.4755 86.028 75.0154 87.8594C77.5422 89.681 82.479 88.1333 82.5301 88.1172C82.4691 88.1606 75.387 93.1891 70.1336 87.666C65.5998 82.899 68.9323 76.6272 68.948 76.5977C68.9448 76.6109 68.8025 77.1888 68.8025 77.8584C68.8026 78.5285 69.1563 79.0399 69.1639 79.0508C69.1805 79.0152 70.2473 76.7346 71.0789 75.8027C72.4827 74.2298 74.5165 73.1827 75.3143 72.2754C77.2251 70.1018 76.0535 66.1426 76.0535 66.1426Z" fill="white"/>
<path fill-rule="evenodd" clip-rule="evenodd" d="M76.0535 66.1426L76.7211 65.3981L74.093 63.0415L75.0946 66.4263L76.0535 66.1426ZM78.8094 70.5693L79.7815 70.3351L79.7815 70.335L78.8094 70.5693ZM79.9178 76.3271L79.9708 77.3257L79.971 77.3257L79.9178 76.3271ZM80.2459 72.2754L80.7186 71.3942L77.7309 69.7913L79.3706 72.759L80.2459 72.2754ZM85.491 80.6064L86.4878 80.6861L86.4878 80.686L85.491 80.6064ZM79.2947 87.1133L78.6536 86.3458L79.4992 88.0921L79.2947 87.1133ZM81.0975 84.7627L82.0632 85.0223L82.0632 85.0222L81.0975 84.7627ZM80.8211 81.4336L81.7903 81.1873L79.8456 81.2136L80.8211 81.4336ZM79.7654 83.9326L80.4884 84.6235L80.4886 84.6233L79.7654 83.9326ZM77.5721 85.0107L77.1305 84.1135L77.679 86.005L77.5721 85.0107ZM78.909 82.8682L79.909 82.8683V82.8682H78.909ZM76.5193 80.4785V79.4785H76.5193L76.5193 80.4785ZM74.1297 82.8682H73.1297V82.8683L74.1297 82.8682ZM74.3543 83.875L73.7249 84.6521L75.2607 83.4527L74.3543 83.875ZM73.3973 82.1348L74.3899 82.0133L72.4242 81.9044L73.3973 82.1348ZM75.0154 87.8594L74.4306 88.6705L74.4306 88.6706L75.0154 87.8594ZM82.5301 88.1172L83.1106 88.9314L82.2296 87.1634L82.5301 88.1172ZM70.1336 87.666L69.409 88.3552L69.409 88.3552L70.1336 87.666ZM68.948 76.5977L69.9189 76.8374L68.0654 76.1276L68.948 76.5977ZM68.8025 77.8584H67.8025V77.8584L68.8025 77.8584ZM69.1639 79.0508L68.3429 79.6218L69.3348 81.0479L70.0699 79.4739L69.1639 79.0508ZM71.0789 75.8027L70.3328 75.1369L70.3328 75.1369L71.0789 75.8027ZM75.3143 72.2754L76.0652 72.9357L76.0653 72.9356L75.3143 72.2754ZM76.0535 66.1426C75.3859 66.8871 75.3857 66.8869 75.3856 66.8868C75.3855 66.8868 75.3854 66.8866 75.3853 66.8865C75.3851 66.8864 75.385 66.8862 75.3848 66.8861C75.3846 66.8859 75.3845 66.8858 75.3845 66.8859C75.3846 66.8859 75.3851 66.8864 75.3862 66.8873C75.3882 66.8892 75.3923 66.8929 75.3982 66.8984C75.4099 66.9093 75.429 66.9272 75.4546 66.9518C75.5059 67.001 75.5828 67.0766 75.6783 67.1761C75.8699 67.3756 76.1336 67.6678 76.4145 68.0316C76.9857 68.7713 77.5829 69.7487 77.8372 70.8037L78.8094 70.5693L79.7815 70.335C79.4345 68.8951 78.6538 67.6592 77.9974 66.8092C77.6645 66.3781 77.3519 66.0314 77.1208 65.7907C77.005 65.6701 76.9088 65.5754 76.8399 65.5092C76.8054 65.476 76.7776 65.45 76.7575 65.4314C76.7475 65.4221 76.7394 65.4146 76.7333 65.409C76.7302 65.4063 76.7277 65.404 76.7256 65.4021C76.7246 65.4012 76.7237 65.4004 76.723 65.3997C76.7226 65.3994 76.7222 65.3991 76.7219 65.3988C76.7218 65.3987 76.7216 65.3985 76.7215 65.3984C76.7213 65.3982 76.7211 65.3981 76.0535 66.1426ZM78.8094 70.5693L77.8372 70.8036C77.9488 71.2668 77.9488 71.8167 77.8893 72.446C77.86 72.7564 77.8183 73.0677 77.7747 73.3874C77.7322 73.6993 77.6867 74.0277 77.6568 74.3375C77.6029 74.8967 77.5629 75.6631 77.8858 76.2914C78.0695 76.6488 78.3602 76.9459 78.7614 77.1295C79.141 77.3032 79.558 77.3477 79.9708 77.3257L79.9178 76.3271L79.8647 75.3286C79.6529 75.3398 79.5857 75.3072 79.5936 75.3108C79.6232 75.3244 79.6549 75.3584 79.6646 75.3772C79.665 75.3779 79.6574 75.3633 79.6484 75.325C79.6394 75.2864 79.6306 75.231 79.6255 75.1543C79.6149 74.9966 79.6222 74.7926 79.6476 74.5295C79.6728 74.2672 79.7121 73.9825 79.7564 73.6574C79.7996 73.3403 79.8467 72.9909 79.8804 72.6342C79.9471 71.9293 79.9705 71.1193 79.7815 70.3351L78.8094 70.5693ZM79.9178 76.3271L79.971 77.3257C80.4133 77.3022 80.8363 77.1905 81.1992 76.9501C81.5702 76.7043 81.8129 76.3669 81.9533 76.0054C82.2138 75.3351 82.1222 74.591 81.997 74.0425C81.7369 72.9032 81.1358 71.8182 81.1212 71.7918L80.2459 72.2754L79.3706 72.759C79.3663 72.7513 79.4894 72.9736 79.6385 73.3101C79.7901 73.6522 79.954 74.0795 80.0471 74.4876C80.1484 74.931 80.1265 75.1848 80.0891 75.2811C80.0834 75.2958 80.0805 75.2977 80.0842 75.2931C80.0858 75.291 80.088 75.2885 80.0905 75.2862C80.093 75.2839 80.0946 75.2828 80.0945 75.2828C80.0944 75.2829 80.0915 75.2849 80.0846 75.2881C80.0776 75.2913 80.0659 75.296 80.0483 75.3012C80.0129 75.3116 79.954 75.3238 79.8646 75.3286L79.9178 76.3271ZM80.2459 72.2754L79.7732 73.1566C79.7519 73.1452 81.0649 73.8491 82.3196 75.1603C83.5767 76.4739 84.6732 78.2842 84.4942 80.5269L85.491 80.6064L86.4878 80.686C86.7304 77.6476 85.2251 75.3036 83.7646 73.7775C82.3018 72.249 80.7814 71.4279 80.7186 71.3942L80.2459 72.2754ZM85.491 80.6064L84.4942 80.5268C84.3151 82.7682 83.0223 84.1501 81.6924 85.0071C81.0247 85.4374 80.3632 85.7229 79.8666 85.9004C79.6197 85.9887 79.4173 86.049 79.2802 86.0864C79.2117 86.1051 79.1599 86.118 79.1273 86.1258C79.111 86.1297 79.0995 86.1323 79.0932 86.1337C79.0901 86.1344 79.0882 86.1348 79.0877 86.1349C79.0875 86.135 79.0875 86.135 79.088 86.1349C79.0882 86.1348 79.0885 86.1348 79.0888 86.1347C79.089 86.1347 79.0894 86.1346 79.0895 86.1346C79.0898 86.1345 79.0902 86.1344 79.2947 87.1133C79.4992 88.0921 79.4996 88.0921 79.5001 88.092C79.5003 88.0919 79.5008 88.0918 79.5011 88.0917C79.5019 88.0916 79.5027 88.0914 79.5036 88.0912C79.5054 88.0908 79.5076 88.0904 79.5101 88.0898C79.5151 88.0887 79.5216 88.0873 79.5294 88.0856C79.5449 88.0821 79.566 88.0773 79.592 88.0711C79.6442 88.0586 79.7168 88.0404 79.807 88.0158C79.9873 87.9666 80.2391 87.8912 80.54 87.7836C81.1392 87.5694 81.9473 87.2221 82.7757 86.6883C84.4381 85.6171 86.2434 83.7456 86.4878 80.6861L85.491 80.6064ZM79.2947 87.1133C79.9358 87.8807 79.936 87.8806 79.9361 87.8805C79.9361 87.8805 79.9363 87.8804 79.9364 87.8803C79.9366 87.8801 79.9368 87.8799 79.9371 87.8797C79.9376 87.8792 79.9382 87.8787 79.9389 87.8781C79.9403 87.877 79.9421 87.8755 79.9442 87.8737C79.9484 87.8701 79.9541 87.8653 79.9611 87.8593C79.9751 87.8474 79.9945 87.8307 80.0186 87.8096C80.0667 87.7675 80.1338 87.7077 80.2145 87.633C80.3751 87.4844 80.5933 87.2731 80.8232 87.0224C81.247 86.5603 81.8489 85.8194 82.0632 85.0223L81.0975 84.7627L80.1318 84.5031C80.0532 84.7953 79.7537 85.2296 79.3493 85.6706C79.1652 85.8713 78.9876 86.0434 78.8559 86.1653C78.7905 86.2259 78.7374 86.2732 78.7018 86.3043C78.684 86.3198 78.6706 86.3313 78.6624 86.3384C78.6583 86.3419 78.6554 86.3443 78.6539 86.3456C78.6532 86.3462 78.6528 86.3465 78.6527 86.3466C78.6527 86.3466 78.6528 86.3466 78.6529 86.3464C78.653 86.3464 78.6531 86.3463 78.6532 86.3462C78.6533 86.3461 78.6534 86.346 78.6534 86.346C78.6535 86.3459 78.6536 86.3458 79.2947 87.1133ZM81.0975 84.7627L82.0632 85.0222C82.2703 84.2516 82.162 83.2262 82.0577 82.5395C82.001 82.1662 81.9349 81.8315 81.8831 81.5905C81.8571 81.4695 81.8345 81.371 81.8181 81.3018C81.8099 81.2671 81.8033 81.2397 81.7985 81.2204C81.7961 81.2107 81.7942 81.203 81.7928 81.1975C81.7922 81.1947 81.7916 81.1925 81.7912 81.1908C81.791 81.1899 81.7908 81.1892 81.7906 81.1886C81.7906 81.1884 81.7905 81.1881 81.7904 81.1879C81.7904 81.1878 81.7904 81.1876 81.7904 81.1876C81.7903 81.1874 81.7903 81.1873 80.8211 81.4336C79.8519 81.6799 79.8519 81.6798 79.8518 81.6797C79.8518 81.6796 79.8518 81.6796 79.8518 81.6795C79.8518 81.6794 79.8518 81.6794 79.8518 81.6794C79.8518 81.6793 79.8518 81.6794 79.8518 81.6797C79.852 81.6801 79.8522 81.6811 79.8526 81.6826C79.8533 81.6856 79.8546 81.6907 79.8563 81.6977C79.8597 81.7117 79.865 81.7334 79.8718 81.7622C79.8854 81.8196 79.905 81.9046 79.9278 82.0107C79.9735 82.2236 80.0314 82.5169 80.0804 82.8397C80.1875 83.5452 80.2174 84.1844 80.1317 84.5032L81.0975 84.7627ZM80.8211 81.4336C79.8456 81.2136 79.8456 81.2134 79.8456 81.2133C79.8457 81.2133 79.8457 81.2132 79.8457 81.2132C79.8457 81.213 79.8457 81.213 79.8457 81.2129C79.8458 81.2128 79.8458 81.2128 79.8457 81.2129C79.8457 81.2131 79.8456 81.2138 79.8453 81.2148C79.8448 81.2169 79.844 81.2207 79.8427 81.226C79.8402 81.2367 79.8362 81.2535 79.8307 81.276C79.8198 81.3209 79.803 81.3876 79.7808 81.4705C79.7361 81.6372 79.6707 81.8645 79.5878 82.1088C79.4022 82.656 79.1948 83.0822 79.0422 83.242L79.7654 83.9326L80.4886 84.6233C80.9802 84.1085 81.3006 83.2853 81.4818 82.7515C81.5823 82.4554 81.66 82.1845 81.7127 81.988C81.7391 81.8893 81.7595 81.8082 81.7736 81.7507C81.7806 81.7219 81.7861 81.6989 81.7899 81.6825C81.7918 81.6743 81.7934 81.6677 81.7945 81.6629C81.795 81.6605 81.7955 81.6585 81.7958 81.6569C81.796 81.6562 81.7962 81.6555 81.7963 81.6549C81.7963 81.6547 81.7964 81.6544 81.7965 81.6542C81.7965 81.6541 81.7965 81.6539 81.7965 81.6539C81.7966 81.6538 81.7966 81.6536 80.8211 81.4336ZM79.7654 83.9326L79.0424 83.2418C78.6374 83.6656 78.1741 83.9402 77.4651 84.0165L77.5721 85.0107L77.679 86.005C78.906 85.873 79.7927 85.3516 80.4884 84.6235L79.7654 83.9326ZM77.5721 85.0107L78.0136 85.908C79.1317 85.3577 79.9089 84.2072 79.909 82.8683L78.909 82.8682L77.909 82.8681C77.9089 83.4121 77.5949 83.8849 77.1305 84.1135L77.5721 85.0107ZM78.909 82.8682H79.909C79.909 80.9961 78.3914 79.4785 76.5193 79.4785V80.4785V81.4785C77.2869 81.4785 77.909 82.1006 77.909 82.8682H78.909ZM76.5193 80.4785L76.5193 79.4785C74.6473 79.4786 73.1297 80.996 73.1297 82.8682H74.1297H75.1297C75.1297 82.1007 75.7518 81.4785 76.5194 81.4785L76.5193 80.4785ZM74.1297 82.8682L73.1297 82.8683C73.1297 83.3818 73.2468 83.8659 73.4479 84.2973L74.3543 83.875L75.2607 83.4527C75.1764 83.2716 75.1297 83.0747 75.1297 82.8681L74.1297 82.8682ZM74.3543 83.875L74.9837 83.0979C74.7515 82.9098 74.5966 82.6461 74.4986 82.3931C74.4513 82.2709 74.4223 82.1638 74.4058 82.091C74.3976 82.0551 74.3928 82.0287 74.3904 82.0146C74.3892 82.0076 74.3886 82.0038 74.3886 82.0034C74.3886 82.0032 74.3887 82.0039 74.3889 82.0056C74.389 82.0064 74.3891 82.0074 74.3893 82.0087C74.3894 82.0093 74.3895 82.01 74.3896 82.0108C74.3896 82.0112 74.3896 82.0116 74.3897 82.012C74.3897 82.0122 74.3898 82.0125 74.3898 82.0126C74.3898 82.013 74.3899 82.0133 73.3973 82.1348C72.4047 82.2562 72.4047 82.2566 72.4048 82.2569C72.4048 82.257 72.4048 82.2574 72.4048 82.2576C72.4049 82.2581 72.405 82.2586 72.405 82.2591C72.4052 82.2601 72.4053 82.2612 72.4054 82.2624C72.4057 82.2647 72.4061 82.2673 72.4065 82.2702C72.4072 82.2759 72.4082 82.2827 72.4093 82.2905C72.4116 82.3062 72.4146 82.326 72.4186 82.3496C72.4266 82.3967 72.4385 82.4593 72.4555 82.5342C72.4894 82.6831 72.5448 82.8857 72.6335 83.115C72.8076 83.5649 73.1312 84.1712 73.7249 84.6521L74.3543 83.875ZM73.3973 82.1348C72.4242 81.9044 72.4241 81.9047 72.424 81.9051C72.424 81.9053 72.4239 81.9057 72.4238 81.9059C72.4237 81.9065 72.4235 81.9072 72.4233 81.9079C72.423 81.9093 72.4226 81.9109 72.4222 81.9128C72.4213 81.9166 72.4203 81.9213 72.419 81.9269C72.4164 81.9382 72.4131 81.9533 72.4092 81.9718C72.4013 82.009 72.3909 82.0604 72.3791 82.1247C72.3555 82.253 72.3261 82.4334 72.2999 82.6538C72.2479 83.092 72.2072 83.7019 72.2565 84.3825C72.3533 85.7197 72.8151 87.5057 74.4306 88.6705L75.0154 87.8594L75.6003 87.0482C74.6758 86.3817 74.3286 85.3054 74.2513 84.2381C74.2135 83.7165 74.2445 83.2386 74.286 82.8896C74.3065 82.7164 74.3292 82.5783 74.3461 82.4866C74.3545 82.4408 74.3615 82.4068 74.3659 82.386C74.368 82.3757 74.3696 82.3686 74.3704 82.3651C74.3708 82.3633 74.371 82.3624 74.371 82.3624C74.371 82.3624 74.371 82.3626 74.3708 82.3631C74.3708 82.3633 74.3707 82.3636 74.3706 82.3639C74.3706 82.3641 74.3705 82.3644 74.3705 82.3645C74.3704 82.3648 74.3704 82.3651 73.3973 82.1348ZM75.0154 87.8594L74.4306 88.6706C76.0146 89.8124 78.212 89.8371 79.8042 89.6721C81.4569 89.5009 82.7768 89.0879 82.8305 89.071L82.5301 88.1172L82.2296 87.1634C82.2323 87.1625 81.0583 87.5315 79.5981 87.6828C78.0774 87.8403 76.5431 87.7279 75.6002 87.0482L75.0154 87.8594ZM82.5301 88.1172L81.9496 87.3029C81.9581 87.2969 80.2977 88.4774 78.0503 89.0056C75.8398 89.525 73.1649 89.402 70.8582 86.9768L70.1336 87.666L69.409 88.3552C72.3557 91.4531 75.8486 91.5774 78.5078 90.9525C81.1299 90.3363 83.0411 88.981 83.1106 88.9314L82.5301 88.1172ZM70.1336 87.666L70.8582 86.9769C68.86 84.8759 68.5828 82.4518 68.8272 80.4782C69.074 78.4846 69.8487 77.0339 69.8307 77.0677L68.948 76.5977L68.0654 76.1276C68.0316 76.191 67.1322 77.8909 66.8423 80.2324C66.5499 82.5938 66.8734 85.6892 69.409 88.3552L70.1336 87.666ZM68.948 76.5977L67.9772 76.358C67.9671 76.3988 67.8025 77.0685 67.8025 77.8584H68.8025H69.8025C69.8025 77.309 69.9224 76.8231 69.9189 76.8374L68.948 76.5977ZM68.8025 77.8584L67.8025 77.8584C67.8026 78.8437 68.3044 79.5664 68.3429 79.6218L69.1639 79.0508L69.9848 78.4798C70.0077 78.5126 69.9569 78.4445 69.9024 78.3148C69.8469 78.1825 69.8025 78.0217 69.8025 77.8584L68.8025 77.8584ZM69.1639 79.0508L70.0699 79.4739C70.0743 79.4645 70.3361 78.9047 70.6959 78.2376C71.0704 77.5432 71.4965 76.8367 71.825 76.4686L71.0789 75.8027L70.3328 75.1369C69.8297 75.7006 69.3066 76.6004 68.9356 77.2882C68.55 78.0032 68.27 78.6015 68.2578 78.6276L69.1639 79.0508ZM71.0789 75.8027L71.825 76.4686C72.4498 75.7685 73.2324 75.167 74.0133 74.5972C74.7317 74.073 75.5723 73.4963 76.0652 72.9357L75.3143 72.2754L74.5633 71.615C74.2585 71.9617 73.6833 72.3622 72.8344 72.9816C72.048 73.5555 71.1118 74.2641 70.3328 75.1369L71.0789 75.8027ZM75.3143 72.2754L76.0653 72.9356C77.2798 71.5541 77.457 69.6935 77.3995 68.3511C77.3698 67.657 77.2748 67.0422 77.1878 66.6015C77.1441 66.3802 77.1019 66.2002 77.0699 66.073C77.0539 66.0093 77.0404 65.9587 77.0305 65.9226C77.0255 65.9045 77.0214 65.8901 77.0184 65.8794C77.0168 65.874 77.0156 65.8696 77.0146 65.8662C77.0141 65.8645 77.0136 65.863 77.0133 65.8618C77.0131 65.8612 77.0129 65.8606 77.0128 65.8601C77.0127 65.8599 77.0126 65.8596 77.0126 65.8594C77.0125 65.8591 77.0124 65.8588 76.0535 66.1426C75.0946 66.4263 75.0945 66.4261 75.0945 66.4258C75.0944 66.4257 75.0944 66.4255 75.0943 66.4254C75.0943 66.4251 75.0942 66.4249 75.0942 66.4248C75.0941 66.4245 75.0941 66.4245 75.0941 66.4247C75.0942 66.4251 75.0946 66.4264 75.0953 66.4286C75.0965 66.433 75.0988 66.4411 75.1019 66.4525C75.1082 66.4755 75.118 66.5121 75.1303 66.5609C75.1549 66.6588 75.1894 66.805 75.2256 66.9888C75.2986 67.3585 75.3771 67.8693 75.4014 68.4367C75.4519 69.6173 75.2595 70.8231 74.5632 71.6151L75.3143 72.2754Z" fill="black"/>
<defs>
<filter id="filter0_d_154_1383" x="-0.000118256" y="-0.000118256" width="154.242" height="155.073" filterUnits="userSpaceOnUse" color-interpolation-filters="sRGB">
<feFlood flood-opacity="0" result="BackgroundImageFix"/>
<feColorMatrix in="SourceAlpha" type="matrix" values="0 0 0 0 0 0 0 0 0 0 0 0 0 0 0 0 0 0 127 0" result="hardAlpha"/>
<feOffset/>
<feGaussianBlur stdDeviation="26.0606"/>
<feColorMatrix type="matrix" values="0 0 0 0 0.996078 0 0 0 0 0.619608 0 0 0 0 0.329412 0 0 0 0.7 0"/>
<feBlend mode="normal" in2="BackgroundImageFix" result="effect1_dropShadow_154_1383"/>
<feBlend mode="normal" in="SourceGraphic" in2="effect1_dropShadow_154_1383" result="shape"/>
</filter>
<linearGradient id="paint0_linear_154_1383" x1="53.1211" y1="53.1211" x2="53.1211" y2="101.95" gradientUnits="userSpaceOnUse">
<stop stop-color="#FB9B51"/>
<stop offset="1" stop-color="#FBAE46"/>
</linearGradient>
</defs>
</svg>
